<?xml version="1.0" encoding="UTF-8"?>
<!DOCTYPE svg PUBLIC "-//W3C//DTD SVG 1.1//EN" "http://www.w3.org/Graphics/SVG/1.1/DTD/svg11.dtd">
<!-- Creator: CorelDRAW -->
<svg xmlns="http://www.w3.org/2000/svg" xml:space="preserve" width="135.641mm" height="40.1163mm" version="1.1" style="shape-rendering:geometricPrecision; text-rendering:geometricPrecision; image-rendering:optimizeQuality; fill-rule:evenodd; clip-rule:evenodd"
viewBox="0 0 11295.16 3340.58"
 xmlns:xlink="http://www.w3.org/1999/xlink"
 xmlns:xodm="http://www.corel.com/coreldraw/odm/2003">
 <defs>
  <style type="text/css">
   <![CDATA[
    .fil1 {fill:#FEFEFE}
    .fil0 {fill:#FEFEFE;fill-rule:nonzero}
   ]]>
  </style>
 </defs>
 <g id="Camada_x0020_1">
  <metadata id="CorelCorpID_0Corel-Layer"/>
  <g id="_1665577081088">
   <path class="fil0" d="M3054.65 1002.02c87.49,0 154.65,71.42 154.65,154.31 0,82.9 -67.17,150.07 -154.65,150.07l-447.22 0 0 -304.38 447.22 0 0 0zm-109.43 -561.91c82.89,0 152.02,69.46 152.02,154.65 0,82.56 -69.13,154.32 -152.02,154.32l-337.79 0 0 -308.97 337.79 0zm-593.03 996.03c0,69.12 56.03,127.45 125.16,127.45l577.3 0c226.08,0 411.85,-185.77 411.85,-407.26 0,-145.47 -78.31,-272.93 -190.36,-337.79 47.18,-60.61 76.34,-138.92 76.34,-223.78 0,-228.37 -185.77,-409.55 -407.26,-409.55l-467.54 0c-69.47,0 -125.49,56.03 -125.49,125.48l0 1125.45 0 0zm1254.21 -436.42l0 449.52c0,67.17 51.45,118.61 116.32,118.61 64.87,0 116.32,-51.44 116.32,-118.61l0 -449.52c0,-127.45 100.91,-230.66 230.66,-230.66 62.58,0 116.32,-51.45 116.32,-116.32 0,-62.58 -53.74,-116.32 -116.32,-116.32 -255.23,0 -463.29,210.35 -463.29,463.29zm705.42 -344.68l0 792.24c0,62.58 53.73,116.32 116.31,116.32 67.17,0 120.9,-53.74 120.9,-116.32l0 -792.24c0,-64.87 -53.74,-118.61 -120.9,-118.61 -62.58,0 -116.31,53.74 -116.31,118.61zm-13.44 -315.51c0,74.05 58.32,132.04 129.75,132.04 76.01,0 134.34,-57.99 134.34,-132.04 0,-73.72 -58.32,-129.75 -134.34,-129.75 -71.42,0 -129.75,56.03 -129.75,129.75l0 0zm440.35 660.19l0 447.56c0,62.58 53.74,116.32 116.32,116.32 67.17,0 118.61,-53.74 118.61,-116.32l0 -447.56c0,-127.45 105.17,-230.66 230.33,-230.66 123.19,0 228.37,103.21 228.37,230.66l0 447.56c0,62.58 53.74,116.32 118.61,116.32 62.58,0 116.32,-53.74 116.32,-116.32l0 -447.56c0,-252.94 -210.35,-463.29 -463.29,-463.29 -254.91,0 -465.25,210.35 -465.25,463.29zm1583.48 563.87c143.18,0 268.35,-58.32 364.67,-150.06 44.89,-46.86 44.89,-122.87 0,-165.46 -22.28,-24.57 -51.44,-35.72 -80.6,-35.72 -31.13,0 -62.58,11.14 -84.85,35.72 -51.45,49.15 -118.61,80.6 -199.21,80.6 -152.02,0 -277.51,-125.16 -277.51,-279.8 0,-152.02 125.48,-279.48 277.51,-279.48 76.02,0 147.77,28.84 199.21,80.27 19.99,24.9 51.44,36.04 82.56,36.04 29.15,0 58.32,-11.47 82.89,-33.75 44.89,-46.85 44.89,-120.57 0,-165.45 -96.32,-91.74 -221.49,-149.73 -364.67,-149.73 -281.77,-0.33 -510.14,228.03 -510.14,512.1 0,286.36 228.37,514.72 510.14,514.72l0 0zm1034.37 -234.92c-154.32,0 -282.1,-123.19 -282.1,-279.8 0,-152.02 127.78,-279.8 282.1,-279.8 152.02,0 277.51,127.78 277.51,279.8 0,156.61 -125.49,279.8 -277.51,279.8l0 0zm279.48 152.03c13.43,47.17 58.32,82.89 109.75,82.89 67.17,0 120.9,-53.74 120.9,-116.32l0 -398.41c0,-281.77 -228.37,-510.14 -510.14,-510.14 -284.07,0 -512.43,228.37 -512.43,510.14 0,286.36 228.37,514.72 512.43,514.72 102.87,0 199.2,-31.45 279.48,-82.89l0 0zm397.43 -480.98l0 447.56c0,62.58 53.74,116.32 116.32,116.32 67.17,0 118.61,-53.74 118.61,-116.32l0 -447.56c0,-127.45 105.17,-230.66 230.33,-230.66 123.19,0 228.37,103.21 228.37,230.66l0 447.56c0,62.58 53.74,116.32 118.61,116.32 62.58,0 116.32,-53.74 116.32,-116.32l0 -447.56c0,-252.94 -210.35,-463.29 -463.29,-463.29 -254.91,0 -465.25,210.35 -465.25,463.29zm1583.48 -230.66c154.32,0 279.81,127.78 279.81,279.8 0,154.32 -125.49,279.8 -279.81,279.8 -152.02,0 -277.51,-125.48 -277.51,-279.8 0,-152.02 125.48,-279.8 277.51,-279.8zm0 794.53c284.07,0 512.43,-228.37 512.43,-514.72l0 -747.35c0,-64.87 -53.74,-116.31 -116.32,-116.31 -64.87,0 -116.31,51.44 -116.31,116.31l0 337.8c-74.05,-62.58 -170.05,-102.88 -279.81,-102.88 -281.77,0 -510.14,228.37 -510.14,512.43 0,286.36 228.37,514.72 510.14,514.72zm655.61 -514.72c0,286.36 228.37,514.72 512.43,514.72 281.77,0 510.14,-228.37 510.14,-514.72 0,-284.07 -228.37,-512.43 -510.14,-512.43 -284.07,0 -512.43,228.37 -512.43,512.43l0 0zm789.95 0c0,154.32 -125.49,279.8 -277.51,279.8 -154.32,0 -282.1,-125.48 -282.1,-279.8 0,-152.02 127.78,-279.8 282.1,-279.8 152.02,0 277.51,127.78 277.51,279.8l0 0z"/>
   <path class="fil0" d="M3658.76 2925.65c80.79,0 153.88,-33.44 207.8,-86.05 15.41,-16.72 15.41,-40.96 0,-57.68 -7.7,-7.7 -18.04,-11.65 -28.18,-11.65 -10.33,0 -20.67,3.95 -29.5,11.65 -38.51,38.51 -91.12,62.94 -150.12,62.94 -117.98,0 -213.05,-95.06 -213.05,-213.05 0,-118.17 95.07,-213.05 213.05,-213.05 57.68,0 111.6,24.42 150.12,61.62 7.7,9.02 19.17,12.78 29.5,12.78 9.02,0 19.16,-3.76 28.18,-11.47 15.41,-16.72 15.41,-42.46 0,-57.87 -53.92,-52.6 -127.01,-85.85 -207.8,-85.85 -161.76,0 -293.84,132.08 -293.84,293.84 0,161.57 132.08,293.84 293.84,293.84zm301.36 -293.84c0,162.89 132.08,293.84 293.84,293.84 161.58,0 293.84,-130.95 293.84,-293.84 0,-163.07 -132.26,-293.84 -293.84,-293.84 -161.76,0 -293.84,130.76 -293.84,293.84l0 0zm506.9 0c0,117.99 -95.07,213.05 -213.06,213.05 -117.98,0 -213.05,-95.06 -213.05,-213.05 0,-119.3 95.07,-214.37 213.05,-214.37 117.99,0 213.06,95.07 213.06,214.37l0 0zm186.37 -79.66l0 332.36c0,23.11 18.04,41.14 41.14,41.14 21.79,0 39.64,-18.04 39.64,-41.14l0 -332.36c0,-73.08 59,-133.39 132.27,-133.39 74.4,0 132.08,60.31 132.08,133.39l0 332.36c0,23.11 18.04,41.14 41.14,41.14 21.79,0 40.95,-18.04 40.95,-41.14l0 -332.36c-2.62,-73.08 60.31,-133.39 130.95,-133.39 74.4,0 132.08,60.31 132.08,133.39l0 332.36c0,23.11 17.85,41.14 41.14,41.14 22.92,0 40.95,-18.04 40.95,-41.14l0 -332.36c0,-117.99 -96.19,-214.18 -214.18,-214.18 -73.27,0 -137.34,39.64 -171.91,98.82 -33.44,-59.18 -98.83,-98.82 -173.22,-98.82 -116.86,0 -213.05,96.19 -213.05,214.18l0 0z"/>
   <path class="fil0" d="M6192.95 2050.05c-162.35,0 -265.64,93.77 -290.55,200.7 -22.96,110.84 36.39,248.57 200.7,296.43l303.99 85.94c40.03,13.44 36.39,53.47 -7.56,53.47l-349.9 0c-66.9,0 -120.36,53.74 -120.36,120.65 0,64.94 53.46,118.41 120.36,118.41l326.95 0c160.39,0 261.73,-93.77 288.6,-198.75 22.96,-110.84 -34.43,-250.53 -202.66,-298.12l-302.04 -88.18c-40.03,-11.47 -32.47,-51.5 11.47,-51.5l326.95 0c64.94,0 118.41,-55.43 118.41,-118.69 0,-66.9 -53.47,-120.36 -118.41,-120.36l-305.96 0z"/>
   <path class="fil0" d="M6793.68 2170.7l0 636.54c0,64.94 55.15,118.41 120.37,118.41 68.86,0 122.33,-53.46 122.33,-118.41l0 -636.54c0,-65.22 -53.74,-120.65 -122.33,-120.65 -65.22,0 -120.37,55.43 -120.37,120.65l0 0zm-34.71 -296.44c-34.15,21 -40.03,55.43 -26.59,82.3 9.52,20.99 32.47,36.39 59.06,36.39 9.8,0 17.36,-1.96 28.84,-5.88l212.18 -47.87c59.34,-17.07 85.94,-82.02 62.98,-135.76 -19.03,-38.07 -49.54,-53.47 -83.97,-53.47 -24.92,0 -51.79,7.56 -76.42,22.96l-176.07 101.33z"/>
   <path class="fil0" d="M7197.62 1870.34l0 936.9c0,64.94 53.46,118.41 120.36,118.41 64.94,0 118.69,-53.46 118.69,-118.41l0 -936.9c0,-66.9 -53.74,-120.37 -118.69,-120.37 -66.9,0 -120.36,51.79 -120.36,120.37z"/>
   <path class="fil0" d="M8196.66 2487.85c0,110.84 -89.86,198.75 -196.79,198.75 -110.84,0 -198.74,-87.9 -198.74,-198.75 0,-108.89 87.89,-198.75 198.74,-198.75 106.93,0 196.79,89.86 196.79,198.75zm-634.59 0c0,242.97 196.79,437.8 437.8,437.8 78.38,0 150.88,-20.99 217.78,-55.43 20.99,34.43 55.43,55.43 97.7,55.43 70.54,0 120.36,-53.46 120.36,-118.41l0 -319.39c0,-242.69 -195.11,-437.8 -435.84,-437.8 -241.01,0 -437.8,195.11 -437.8,437.8l0 0z"/>
   <path class="fil0" d="M8997.54 2289.1c108.89,0 196.78,89.86 196.78,198.75 0,110.84 -87.89,198.75 -196.78,198.75 -108.9,0 -197.06,-87.9 -197.06,-198.75 0,-108.89 87.89,-198.75 197.06,-198.75zm-437.8 198.75c0,242.97 198.74,437.8 437.8,437.8 240.73,0 439.75,-195.11 439.75,-437.8 0,-242.69 -199.02,-437.8 -439.75,-437.8 -68.87,0 -137.72,17.35 -197.06,45.91l0 -227.3c0,-66.9 -53.47,-118.69 -120.37,-118.69 -66.9,0 -120.36,51.79 -120.36,118.69l0 619.19z"/>
   <path class="fil0" d="M10156.71 2487.85c0,110.84 -89.86,198.75 -196.79,198.75 -110.84,0 -198.74,-87.9 -198.74,-198.75 0,-108.89 87.89,-198.75 198.74,-198.75 106.93,0 196.79,89.86 196.79,198.75zm-634.59 0c0,242.97 196.79,437.8 437.8,437.8 78.38,0 150.88,-20.99 217.78,-55.43 20.99,34.43 55.43,55.43 97.7,55.43 70.54,0 120.36,-53.46 120.36,-118.41l0 -319.39c0,-242.69 -195.11,-437.8 -435.84,-437.8 -241.01,0 -437.8,195.11 -437.8,437.8l0 0z"/>
   <path class="fil0" d="M10799.99 2050.05c-162.35,0 -265.64,93.77 -290.55,200.7 -22.96,110.84 36.39,248.57 200.7,296.43l303.99 85.94c40.03,13.44 36.39,53.47 -7.56,53.47l-349.9 0c-66.9,0 -120.36,53.74 -120.36,120.65 0,64.94 53.46,118.41 120.36,118.41l326.95 0c160.39,0 261.73,-93.77 288.6,-198.75 22.96,-110.84 -34.43,-250.53 -202.66,-298.12l-302.04 -88.18c-40.03,-11.47 -32.47,-51.5 11.47,-51.5l326.95 0c64.94,0 118.41,-55.43 118.41,-118.69 0,-66.9 -53.47,-120.36 -118.41,-120.36l-305.96 0z"/>
   <g>
    <path class="fil1" d="M1703.67 3340.58c896.15,-17.55 1619.36,-740.76 1636.91,-1636.91l-340.14 0c21.61,51.61 32.67,106.97 32.67,163.17 0,233.49 -189.3,422.78 -422.78,422.78 -233.49,0 -422.78,-189.3 -422.78,-422.78 0,-56.19 11.06,-111.56 32.67,-163.17l-516.54 0 0 636.22 -50.25 -29.45c-54.63,-32 -116.37,-48.61 -179.68,-48.61 -196.64,0 -356.02,159.38 -356.02,356.02 0,196.64 159.38,356.02 356.02,356.02 63.3,0 125.05,-16.61 179.68,-48.61l50.25 -29.45 0 444.77z"/>
    <path class="fil1" d="M-0 1703.67c17.55,896.15 740.76,1619.36 1636.91,1636.91l0 -340.14c-51.61,21.61 -106.97,32.67 -163.17,32.67 -233.49,0 -422.78,-189.3 -422.78,-422.78 0,-233.49 189.3,-422.78 422.78,-422.78 56.19,0 111.56,11.06 163.17,32.67l0 -516.54 -636.22 0 29.45 -50.25c32,-54.64 48.61,-116.38 48.61,-179.69 0,-196.64 -159.38,-356.02 -356.02,-356.02 -196.64,0 -356.02,159.38 -356.02,356.02 0,63.3 16.61,125.05 48.61,179.69l29.45 50.25 -444.77 0z"/>
    <path class="fil1" d="M1636.91 0c-896.15,17.55 -1619.36,740.76 -1636.91,1636.91l340.14 0c-21.61,-51.61 -32.67,-106.97 -32.67,-163.17 0,-233.49 189.3,-422.77 422.78,-422.77 233.49,0 422.78,189.29 422.78,422.77 0,56.2 -11.06,111.56 -32.67,163.17l516.54 0 0 -636.21 50.25 29.44c54.64,32 116.38,48.61 179.69,48.61 196.64,0 356.02,-159.38 356.02,-356.02 0,-196.64 -159.38,-356.02 -356.02,-356.02 -63.3,0 -125.05,16.61 -179.69,48.62l-50.25 29.44 0 -444.77z"/>
   </g>
  </g>
 </g>
</svg>
